<?xml version="1.0" encoding="iso-8859-1"?>
<!-- Generator: Adobe Illustrator 19.0.0, SVG Export Plug-In . SVG Version: 6.00 Build 0)  -->
<svg version="1.1" id="Capa_1" xmlns="http://www.w3.org/2000/svg" xmlns:xlink="http://www.w3.org/1999/xlink" x="0px" y="0px"
	 viewBox="0 0 512 512" style="enable-background:new 0 0 512 512;" xml:space="preserve">
<circle style="fill:#2864F0;" cx="256" cy="256" r="256"/>
<path style="fill:#0053BF;" d="M512,256c0-11.977-0.842-23.756-2.433-35.295L370.855,81.993L60.353,216.709l90.136,90.136
	L100.333,413l90.663,90.663C211.755,509.097,233.538,512,256,512C397.385,512,512,397.385,512,256z"/>
<rect x="100.33" y="190.21" style="fill:#EBF6FC;" width="311.33" height="222.79"/>
<rect x="255.57" y="190.21" style="fill:#E1F1FA;" width="156.09" height="222.79"/>
<polygon style="fill:#FFC247;" points="141.145,81.993 60.353,216.709 451.647,216.709 370.855,81.993 "/>
<polygon style="fill:#FFA426;" points="370.855,81.993 255.571,81.993 255.571,216.709 451.647,216.709 "/>
<rect x="198.35" y="263.67" style="fill:#D6CEC1;" width="115.3" height="149.33"/>
<rect x="255.57" y="263.67" style="fill:#CDC3B4;" width="58.08" height="149.33"/>
<circle style="fill:#A0968C;" cx="225.5" cy="336" r="13.5"/>
<g>
</g>
<g>
</g>
<g>
</g>
<g>
</g>
<g>
</g>
<g>
</g>
<g>
</g>
<g>
</g>
<g>
</g>
<g>
</g>
<g>
</g>
<g>
</g>
<g>
</g>
<g>
</g>
<g>
</g>
</svg>
