<?xml version="1.0" encoding="iso-8859-1"?>
<!-- Generator: Adobe Illustrator 19.0.0, SVG Export Plug-In . SVG Version: 6.00 Build 0)  -->
<svg version="1.1" id="Capa_1" xmlns="http://www.w3.org/2000/svg" xmlns:xlink="http://www.w3.org/1999/xlink" x="0px" y="0px"
	 viewBox="0 0 512 512" style="enable-background:new 0 0 512 512;" xml:space="preserve">
<circle style="fill:#4A7AFF;" cx="256" cy="256" r="256"/>
<path style="fill:#2864F0;" d="M512,256c0-9.96-0.589-19.782-1.696-29.446L408.75,125L114.5,398.5l111.772,111.772
	C236.027,511.4,245.943,512,256,512C397.385,512,512,397.385,512,256z"/>
<rect x="114.5" y="125" style="fill:#00CC71;" width="283" height="273.5"/>
<rect x="255.57" y="125" style="fill:#009954;" width="141.93" height="273.5"/>
<path style="fill:#EA0016;" d="M128.75,244L128.75,244c-14.083,0-25.5-11.417-25.5-25.5V125h51v93.5
	C154.25,232.583,142.833,244,128.75,244z"/>
<path style="fill:#FFFFFF;" d="M179.75,244L179.75,244c-14.083,0-25.5-11.417-25.5-25.5V125h51v93.5
	C205.25,232.583,193.833,244,179.75,244z"/>
<path style="fill:#EA0016;" d="M230.25,244L230.25,244c-14.083,0-25.5-11.417-25.5-25.5V125h51v93.5
	C255.75,232.583,244.333,244,230.25,244z"/>
<path style="fill:#F0F0F0;" d="M281.25,244L281.25,244c-14.083,0-25.5-11.417-25.5-25.5V125h51v93.5
	C306.75,232.583,295.333,244,281.25,244z"/>
<path style="fill:#C30010;" d="M332.25,244L332.25,244c-14.083,0-25.5-11.417-25.5-25.5V125h51v93.5
	C357.75,232.583,346.333,244,332.25,244z"/>
<path style="fill:#F0F0F0;" d="M383.25,244L383.25,244c-14.083,0-25.5-11.417-25.5-25.5V125h51v93.5
	C408.75,232.583,397.333,244,383.25,244z"/>
<rect x="142.96" y="256" style="fill:#B5EFFF;" width="226.08" height="106.67"/>
<rect x="255.57" y="256" style="fill:#96E8FF;" width="113.47" height="106.67"/>
<circle style="fill:#FFDE46;" cx="256" cy="351.45" r="76.982"/>
<path style="fill:#FFB64C;" d="M256,274.467c-0.144,0-0.285,0.01-0.429,0.011v153.941c0.144,0.001,0.285,0.011,0.429,0.011
	c42.516,0,76.982-34.466,76.982-76.982C332.982,308.933,298.516,274.467,256,274.467z"/>
<circle style="fill:#FFF04A;" cx="256" cy="351.45" r="56.921"/>
<path style="fill:#FFDE46;" d="M256,294.528c-0.144,0-0.285,0.01-0.429,0.011v113.82c0.143,0.001,0.285,0.011,0.429,0.011
	c31.436,0,56.921-25.484,56.921-56.921S287.436,294.528,256,294.528z"/>
<path style="fill:#E89F00;" d="M284.28,366.073c0-13.46-10.95-24.41-24.41-24.41h-7.74c-2.668,0-4.838-2.17-4.838-4.838
	s2.171-4.839,4.838-4.839h28.888v-19.571h-15.232v-8.481h-19.572v9.21c-10.61,2.651-18.494,12.261-18.494,23.681
	c0,13.459,10.95,24.41,24.41,24.41h7.74c2.668,0,4.838,2.17,4.838,4.838s-2.171,4.838-4.838,4.838h-28.888v19.572h15.232v8.481
	h19.572v-9.21C276.396,387.103,284.28,377.492,284.28,366.073z"/>
<g>
	<polygon style="fill:#E0911B;" points="281.018,331.985 281.018,312.414 265.786,312.414 265.786,303.933 255.571,303.933 
		255.571,331.985 	"/>
	<path style="fill:#E0911B;" d="M259.87,341.663h-4.298v19.572h4.298c2.668,0,4.838,2.17,4.838,4.838s-2.171,4.838-4.838,4.838
		h-4.298v28.053h10.214v-9.21c10.61-2.651,18.494-12.262,18.494-23.681C284.28,352.613,273.329,341.663,259.87,341.663z"/>
</g>
<g>
</g>
<g>
</g>
<g>
</g>
<g>
</g>
<g>
</g>
<g>
</g>
<g>
</g>
<g>
</g>
<g>
</g>
<g>
</g>
<g>
</g>
<g>
</g>
<g>
</g>
<g>
</g>
<g>
</g>
</svg>
