<?xml version="1.0"?>
<svg xmlns="http://www.w3.org/2000/svg" xmlns:xlink="http://www.w3.org/1999/xlink" version="1.1" id="Capa_1" x="0px" y="0px" viewBox="0 0 511.999 511.999" style="enable-background:new 0 0 511.999 511.999;" xml:space="preserve" width="512px" height="512px"><g><path style="fill:#CDEBFC;" d="M450.398,233.509c-0.901-1.799-2.099-3.598-3.598-5.099l-90.961-77.065l-89.962-77.067  c-3-2.4-6.298-3.598-9.897-3.598c-3.598,0-6.896,1.198-9.897,3.598l-89.962,77.067L65.159,228.41c-1.499,1.5-2.698,3.3-3.598,5.099  c-0.899,2.099-1.499,4.198-1.499,6.296v257.092c0,4.198,1.799,7.797,4.499,10.495c2.698,2.7,6.296,4.499,10.495,4.499h361.847  c4.198,0,7.797-1.799,10.495-4.499c2.7-2.698,4.499-6.296,4.499-10.495V239.805C451.896,237.708,451.296,235.609,450.398,233.509z" data-original="#CDEBFC"/><path style="fill:#BFE1FF;" d="M451.896,239.805v257.092c0,4.198-1.799,7.797-4.499,10.495c-2.698,2.7-6.296,4.499-10.495,4.499  H255.979V70.678c3.598,0,6.896,1.198,9.897,3.598l89.962,77.067l90.961,77.065c1.499,1.5,2.698,3.3,3.598,5.099  C451.296,235.609,451.896,237.708,451.896,239.805z" data-original="#BFE1FF"/><path style="fill:#CF0404;" d="M196.005,270.993c-41.382,0-74.968,33.586-74.968,74.968v29.987c0,8.395,6.596,14.994,14.994,14.994  h119.949V300.98C241.886,282.389,219.695,270.993,196.005,270.993z" data-original="#CF0404"/><path style="fill:#368DCF;" d="M390.922,345.961v29.987c0,8.395-6.596,14.994-14.994,14.994H255.979V300.98  c14.093-18.592,36.286-29.987,59.975-29.987C357.336,270.993,390.922,304.579,390.922,345.961z" data-original="#368DCF"/><path style="fill:#FFA426;" d="M255.979,360.955c-41.382,0-74.968,33.586-74.968,74.968c0,8.395,6.596,14.994,14.994,14.994h119.949  c8.397,0,14.994-6.598,14.994-14.994C330.947,394.541,297.362,360.955,255.979,360.955z" data-original="#FFA426"/><path style="fill:#E0911B;" d="M330.947,435.923c0,8.395-6.596,14.994-14.994,14.994h-59.975v-89.962  C297.362,360.955,330.947,394.541,330.947,435.923z" data-original="#E0911B"/><path style="fill:#FF3F2E;" d="M496.277,190.827L285.367,10.903c-8.395-7.197-18.892-10.795-29.387-10.795  s-20.991,3.598-29.387,10.795L15.683,190.827c-18.892,16.192-20.991,44.38-4.799,63.573c16.194,18.892,44.681,20.991,63.573,4.799  l181.524-154.735l181.822,154.735c8.096,6.896,18.592,10.195,28.787,10.195c12.895,0,25.789-5.097,34.486-14.994  c7.797-9.296,11.695-20.991,10.795-32.985C510.672,209.419,505.274,198.624,496.277,190.827z" data-original="#FF3F2E"/><path style="fill:#CF0404;" d="M511.871,221.415c0.901,11.994-2.998,23.689-10.795,32.985c-8.697,9.897-21.592,14.994-34.486,14.994  c-10.195,0-20.691-3.299-28.787-10.195L255.979,104.464V0.108c10.495,0,20.991,3.598,29.387,10.795l210.911,179.924  C505.274,198.624,510.672,209.419,511.871,221.415z" data-original="#CF0404"/><path style="fill:#FFDA45;" d="M255.979,300.98c-24.89,0-44.981,20.09-44.981,44.981c0,24.888,20.09,44.981,44.981,44.981  s44.981-20.092,44.981-44.981C300.96,321.072,280.87,300.98,255.979,300.98z" data-original="#FFDA45"/><path style="fill:#FFBC36;" d="M300.96,345.961c0,24.888-20.09,44.981-44.981,44.981V300.98  C280.87,300.98,300.96,321.072,300.96,345.961z" data-original="#FFBC36"/><path style="fill:#FF3F2E;" d="M196.005,300.98c-24.803,0-44.981-20.177-44.981-44.981c0-24.803,20.177-44.981,44.981-44.981  s44.981,20.177,44.981,44.981C240.986,280.803,220.809,300.98,196.005,300.98z" data-original="#FF3F2E"/><path style="fill:#1EA1E3" d="M315.954,300.98c-24.803,0-44.981-20.177-44.981-44.981c0-24.803,20.177-44.981,44.981-44.981  c24.803,0,44.981,20.177,44.981,44.981C360.935,280.803,340.758,300.98,315.954,300.98z" data-original="#1EA1E3" class="active-path"/></g> </svg>
